<?xml version="1.0"?>
<svg xmlns="http://www.w3.org/2000/svg" xmlns:xlink="http://www.w3.org/1999/xlink" version="1.1" id="Layer_1" x="0px" y="0px" viewBox="0 0 512 512" style="enable-background:new 0 0 512 512;" xml:space="preserve" width="56px" height="56px" class=""><g><path style="fill:#38B2AC" d="M256,512l144.376-266.624c13.224-23.752,20.816-51.072,20.816-80.184C421.192,73.96,347.232,0,256,0  V512z" data-original="#E21B1B" class="" data-old_color="#E21B1B"/><path style="fill:#64E1DB" d="M256,512L111.624,245.376c-13.224-23.752-20.816-51.072-20.816-80.184C90.808,73.96,164.768,0,256,0  V512z" data-original="#F91E1E" class="active-path" data-old_color="#F91E1E"/><path style="fill:#FFFFFF" d="M256,90.608c40.368,0,73.088,32.72,73.088,73.088s-32.72,73.088-73.088,73.088  s-73.088-32.72-73.088-73.088S215.632,90.608,256,90.608 M256,82.608c-44.712,0-81.088,36.376-81.088,81.088  s36.376,81.088,81.088,81.088s81.088-36.376,81.088-81.088S300.712,82.608,256,82.608L256,82.608z" data-original="#FFFFFF" class="" data-old_color="#FFFFFF"/></g> </svg>
